<?xml version="1.0" encoding="iso-8859-1"?>
<!-- Generator: Adobe Illustrator 16.0.0, SVG Export Plug-In . SVG Version: 6.00 Build 0)  -->
<!DOCTYPE svg PUBLIC "-//W3C//DTD SVG 1.1//EN" "http://www.w3.org/Graphics/SVG/1.1/DTD/svg11.dtd">
<svg 
	version="1.1" 
	id="Capa_1" 
	xmlns="http://www.w3.org/2000/svg" 
	xmlns:xlink="http://www.w3.org/1999/xlink" 
	x="0px" 
	y="0px"
	width="50px" 
	height="39px" 
	viewBox="0 0 218.138 218.139" 
	style="enable-background:new 0 0 218.138 218.139;"
	xml:space="preserve"
	>
<g>
	<path d="M120.943,116.054c0-6.553-5.322-11.874-11.868-11.874c-6.545,0-11.87,5.321-11.87,11.874
		c0,6.539,5.325,11.861,11.87,11.861C115.621,127.915,120.943,122.593,120.943,116.054z M109.075,118.562
		c-1.391,0-2.518-1.139-2.518-2.508c0-1.389,1.133-2.521,2.518-2.521c1.386,0,2.519,1.133,2.519,2.521
		C111.593,117.436,110.466,118.562,109.075,118.562z M206.289,64.978c-6.546,0-11.861,5.328-11.861,11.868
		c0,2.63,0.889,5.051,2.338,7.015l-49.499,38.454L113.77,46.628c4.226-1.814,7.173-6.004,7.173-10.885
		c0-6.555-5.322-11.867-11.861-11.867c-6.54,0-11.865,5.325-11.865,11.867c0,4.881,2.969,9.07,7.176,10.885l-33.378,75.404
		L21.4,83.854c1.44-1.97,2.338-4.378,2.338-7.008c0-6.546-5.325-11.868-11.871-11.868C5.313,64.978,0,70.306,0,76.845
		S5.325,88.71,11.868,88.71c0.317,0,0.621-0.073,0.923-0.101l33.502,86.521c0.198,15.102,39.519,19.133,62.776,19.133
		c23.261,0,62.578-4.031,62.779-19.133l33.503-86.521c0.311,0.027,0.614,0.101,0.919,0.101c6.559,0,11.868-5.325,11.868-11.865
		S212.84,64.978,206.289,64.978z M9.347,76.852c0-1.397,1.135-2.512,2.515-2.512c1.376,0,2.512,1.132,2.512,2.512
		c0,1.376-1.136,2.512-2.512,2.512C10.482,79.363,9.347,78.243,9.347,76.852z M109.075,184.934c-14.547,0-26.411-1.303-35.265-3.008
		c-8.464-1.644-14.16-3.653-16.748-5.285c-0.773-0.487-1.272-0.938-1.479-1.34c0.338-0.743,1.428-1.62,3.2-2.521
		c0.131-0.073,0.28-0.135,0.423-0.207c5.325-2.595,16.243-5.444,32.032-6.735c4.92-0.396,10.3-0.646,16.137-0.676
		c0.572,0,1.129-0.024,1.701-0.024c0.911,0,1.772,0.024,2.661,0.037c5.925,0.061,11.381,0.341,16.344,0.779
		c15.418,1.34,26.073,4.128,31.146,6.503l0.055,0.128h0.231c1.693,0.816,2.729,1.571,3.057,2.204
		c-0.213,0.487-0.767,1.023-1.619,1.596c-2.643,1.802-8.366,3.897-16.83,5.565C135.295,183.655,123.488,184.934,109.075,184.934z
		 M64,160.979l10.75-24.284l25.06,19.278C88.067,156.474,74.531,157.935,64,160.979z M119.116,156.011l24.43-18.986l10.596,23.955
		C143.844,157.995,130.667,156.534,119.116,156.011z M109.075,33.223c1.392,0,2.519,1.129,2.519,2.512
		c0,1.385-1.133,2.509-2.519,2.509c-1.385,0-2.518-1.13-2.518-2.509C106.557,34.352,107.684,33.223,109.075,33.223z M109.075,59.156
		l30.562,69.063l-30.138,23.425l-30.857-23.754L109.075,59.156z M67.118,130.838L52.19,164.511l-24.898-64.313L67.118,130.838z
		 M165.948,164.522l-14.784-33.387l39.622-30.783L165.948,164.522z M206.289,79.363c-1.389,0-2.509-1.136-2.509-2.512
		c0-1.379,1.133-2.512,2.509-2.512s2.515,1.132,2.515,2.512C208.803,78.228,207.665,79.363,206.289,79.363z"/>
</g>

</svg>
